#!OML:ASF F:\VICON\USERDATA\INSTALL\rory3\rory3.ASF
:FULLY-SPECIFIED
:DEGREES
2237
root 2.29735 17.9721 1.12811 2.51729 25.9781 -9.65105
lowerback 6.62774 1.73146 -3.65903
upperback 1.76783 1.99897 -3.64749
thorax -1.883 1.01592 -1.87289
lowerneck -21.2679 -15.1034 -16.0563
upperneck 10.8985 -20.1366 21.2507
head 11.0357 -8.18689 6.45691
rclavicle 4.05521e-014 -3.49861e-014
rhumerus 14.9907 26.0234 -13.6843
rradius 70.6255
rwrist 51.5775
rhand -63.4992 -8.32672
rfingers 7.12502
rthumb -35.4764 -34.7702
lclavicle 4.05521e-014 -3.49861e-014
lhumerus -36.8154 5.37081 59.6489
lradius 64.7049
lwrist -0.864714
lhand -22.9478 19.1362
lfingers 7.12502
lthumb 3.49353 49.0874
rfemur -7.68163 -13.5592 19.4486
rtibia 25.9217
rfoot -15.8942 -15.6319
rtoes 0.218453
lfemur -18.1362 -8.2316 -6.21066
ltibia 29.1856
lfoot -16.0437 -6.10707
ltoes -20.1955
2238
root 2.28031 17.9747 1.14472 2.65471 25.8098 -9.45877
lowerback 6.56648 1.69323 -3.65415
upperback 1.73459 1.94904 -3.74539
thorax -1.87987 0.991417 -1.97145
lowerneck -21.1938 -15.0447 -15.9764
upperneck 10.9423 -20.1211 21.3473
head 11.0428 -8.17156 6.48838
rclavicle 1.90833e-014 -9.54166e-015
rhumerus 15.0184 24.304 -13.6391
rradius 70.311
rwrist 49.534
rhand -62.6397 -3.1177
rfingers 7.12502
rthumb -34.6611 -29.7522
lclavicle 1.90833e-014 -9.54166e-015
lhumerus -36.7063 5.46863 59.5827
lradius 64.5962
lwrist -1.06689
lhand -22.6599 19.2263
lfingers 7.12502
lthumb 3.77157 49.1727
rfemur -7.63077 -13.5854 19.3449
rtibia 25.72
rfoot -15.7842 -15.5575
rtoes 0.089792
lfemur -18.0596 -8.19186 -6.33862
ltibia 29.1461
lfoot -16.0552 -5.88147
ltoes -20.5685
2239
root 2.25842 17.9772 1.15851 2.66585 25.5103 -9.43764
lowerback 6.63515 1.69068 -3.55159
upperback 1.66553 1.94325 -3.78149
thorax -1.98498 0.989059 -2.06966
lowerneck -20.9875 -14.988 -15.9915
upperneck 10.9481 -20.1111 21.5224
head 11.0365 -8.16682 6.56641
rclavicle -4.05521e-014 -2.22639e-014
rhumerus 15.0917 22.3145 -13.5947
rradius 69.4661
rwrist 49.3863
rhand -64.2612 -2.92656
rfingers 7.12502
rthumb -36.1984 -29.1941
lclavicle -4.05521e-014 -2.22639e-014
lhumerus -36.7979 5.5094 59.4714
lradius 64.5917
lwrist -1.26651
lhand -22.2745 18.9484
lfingers 7.12502
lthumb 4.14367 48.8879
rfemur -7.57276 -13.4006 19.4365
rtibia 25.5464
rfoot -15.7033 -15.5585
rtoes -0.022768
lfemur -17.9072 -7.9824 -6.3003
ltibia 29.1181
lfoot -16.0443 -5.70431
ltoes -20.6191
2240
root 2.23828 17.9783 1.16617 2.75098 25.0627 -9.42561
lowerback 6.7477 1.72771 -3.41243
upperback 1.50941 1.98488 -3.81436
thorax -2.20295 1.01057 -2.19281
lowerneck -20.7416 -14.9155 -15.9972
upperneck 10.971 -20.0886 21.6918
head 11.0248 -8.15884 6.64627
rclavicle -1.27222e-014 -1.27222e-014
rhumerus 15.1703 20.4603 -13.4932
rradius 68.884
rwrist 48.5277
rhand -63.9239 -4.03588
rfingers 7.12502
rthumb -35.8789 -30.3821
lclavicle -1.27222e-014 -1.27222e-014
lhumerus -37.1473 5.4481 59.3945
lradius 64.8372
lwrist -1.38077
lhand -22.2618 18.8221
lfingers 7.12502
lthumb 4.15592 48.7613
rfemur -7.65583 -13.0409 19.5383
rtibia 25.3876
rfoot -15.7554 -15.6005
rtoes -0.122563
lfemur -17.812 -7.77713 -6.25644
ltibia 29.0848
lfoot -15.9959 -5.37796
ltoes -20.5993
2241
root 2.22078 17.9797 1.17256 3.02381 24.6594 -9.26788
lowerback 6.72622 1.73677 -3.4189
upperback 1.3121 1.9856 -3.84404
thorax -2.39425 1.0121 -2.22417
lowerneck -20.68 -14.8157 -15.8857
upperneck 11.2141 -20.0104 21.582
head 11.0568 -8.1235 6.61658
rclavicle -2.46493e-014 4.45278e-014
rhumerus 15.4385 18.587 -13.272
rradius 68.1726
rwrist 47.8788
rhand -63.5064 -4.56409
rfingers 7.12502
rthumb -35.4832 -31.0059
lclavicle -2.46493e-014 4.45278e-014
lhumerus -37.4451 5.51589 59.398
lradius 65.0165
lwrist -1.55974
lhand -22.1891 18.8205
lfingers 7.12502
lthumb 4.22616 48.7583
rfemur -7.87937 -12.7419 19.5198
rtibia 25.2609
rfoot -15.8134 -15.6082
rtoes -0.405759
lfemur -17.8723 -7.62342 -6.35402
ltibia 29.0398
lfoot -15.9434 -4.98334
ltoes -20.9817
2242
root 2.20149 17.9823 1.18206 3.21966 24.3527 -9.15439
lowerback 6.67064 1.71879 -3.38749
upperback 1.20335 1.96063 -3.85824
thorax -2.47454 0.999897 -2.25496
lowerneck -20.8144 -14.784 -15.717
upperneck 11.4789 -20.0045 21.3946
head 11.1278 -8.11002 6.52371
rclavicle 4.77083e-014 -6.99722e-014
rhumerus 15.9424 16.5458 -13.06
rradius 67.2358
rwrist 47.2377
rhand -62.9339 -3.01086
rfingers 7.12502
rthumb -34.9402 -29.5809
lclavicle 4.77083e-014 -6.99722e-014
lhumerus -37.3054 5.76402 59.5014
lradius 64.812
lwrist -1.88492
lhand -22.188 18.941
lfingers 7.12502
lthumb 4.2272 48.8788
rfemur -8.00332 -12.5421 19.56
rtibia 25.1705
rfoot -16.0087 -15.5455
rtoes -0.0451017
lfemur -17.8927 -7.48963 -6.38451
ltibia 28.9834
lfoot -15.898 -4.8166
ltoes -20.8909
2243
root 2.1824 17.9823 1.18928 3.35711 24.0458 -9.00088
lowerback 6.67603 1.71716 -3.33673
upperback 1.16218 1.95821 -3.90377
thorax -2.51692 0.998483 -2.33163
lowerneck -20.7604 -14.7867 -15.677
upperneck 11.4634 -20.0442 21.4697
head 11.1283 -8.12392 6.53732
rclavicle 1.59028e-015 -1.90833e-014
rhumerus 16.5834 14.4469 -12.8636
rradius 66.1517
rwrist 46.473
rhand -62.4385 -1.62386
rfingers 7.12502
rthumb -34.4701 -28.302
lclavicle 1.59028e-015 -1.90833e-014
lhumerus -36.9263 6.02219 59.7072
lradius 64.5194
lwrist -2.16572
lhand -22.2094 19.0382
lfingers 7.12502
lthumb 4.20657 48.9764
rfemur -8.08901 -12.4771 19.5391
rtibia 25.1155
rfoot -16.1403 -15.5358
rtoes 0.149856
lfemur -17.8373 -7.48089 -6.46766
ltibia 28.9214
lfoot -15.8181 -4.5202
ltoes -20.9332
2244
root 2.16325 17.981 1.19519 3.42929 23.7969 -8.91001
lowerback 6.72306 1.70322 -3.16941
upperback 1.14146 1.94624 -3.95831
thorax -2.55738 0.991323 -2.48307
lowerneck -20.4432 -14.6817 -15.4834
upperneck 11.2737 -19.9672 21.5259
head 10.9764 -8.10649 6.55579
rclavicle -2.8625e-014 3.49861e-014
rhumerus 16.9331 12.4225 -12.6315
rradius 65.3222
rwrist 45.6984
rhand -61.7289 -2.29475
rfingers 7.12502
rthumb -33.7961 -29.1235
lclavicle -2.8625e-014 3.49861e-014
lhumerus -36.8149 6.05274 59.8554
lradius 64.605
lwrist -2.21785
lhand -22.2733 19.3699
lfingers 7.12502
lthumb 4.14484 49.3093
rfemur -8.15511 -12.45 19.5665
rtibia 25.0713
rfoot -16.223 -15.5636
rtoes 0.280545
lfemur -17.757 -7.49832 -6.48556
ltibia 28.8753
lfoot -15.7228 -4.21071
ltoes -20.9446
2245
root 2.14242 17.9779 1.20143 3.5336 23.5003 -8.86618
lowerback 6.72452 1.70198 -2.95179
upperback 1.074 1.95525 -3.99754
thorax -2.61924 0.994048 -2.64826
lowerneck -19.9476 -14.5601 -15.3638
upperneck 10.9916 -19.8617 21.6398
head 10.7713 -8.09124 6.61889
rclavicle 2.06736e-014 6.36111e-014
rhumerus 17.1626 10.333 -12.4424
rradius 64.6869
rwrist 45.3865
rhand -60.4278 -3.48259
rfingers 7.12502
rthumb -32.559 -30.5748
lclavicle 2.06736e-014 6.36111e-014
lhumerus -37.0279 5.92818 59.9375
lradius 64.9587
lwrist -2.23378
lhand -22.2514 19.4753
lfingers 7.12502
lthumb 4.16599 49.4143
rfemur -8.30772 -12.3101 19.6622
rtibia 25.0622
rfoot -16.3646 -15.5533
rtoes 0.639186
lfemur -17.7252 -7.36172 -6.46996
ltibia 28.8419
lfoot -15.6945 -3.90927
ltoes -21.5136
2246
root 2.1217 17.9766 1.20833 3.66043 23.1808 -8.80687
lowerback 6.69536 1.71089 -2.75987
upperback 1.02144 1.97854 -4.03463
thorax -2.64902 1.00383 -2.79672
lowerneck -19.652 -14.4899 -15.3496
upperneck 10.8038 -19.8095 21.8251
head 10.6688 -8.08025 6.70537
rclavicle 2.38542e-015 -2.22639e-014
rhumerus 17.7112 7.93869 -12.5946
rradius 63.6396
rwrist 45.5477
rhand -59.7027 -4.39559
rfingers 7.12502
rthumb -31.8688 -31.6278
lclavicle 2.38542e-015 -2.22639e-014
lhumerus -37.0483 5.76978 60.0944
lradius 65.1699
lwrist -2.21763
lhand -22.185 19.2497
lfingers 7.12502
lthumb 4.23015 49.1874
rfemur -8.46268 -12.0912 19.7451
rtibia 25.0431
rfoot -16.621 -15.529
rtoes 1.19103
lfemur -17.7307 -7.11242 -6.49207
ltibia 28.8252
lfoot -15.6969 -3.67094
ltoes -22.1013
2247
root 2.10152 17.9767 1.21431 3.78789 22.9252 -8.68634
lowerback 6.64335 1.67334 -2.63637
upperback 1.05952 1.9417 -4.05341
thorax -2.57684 0.984313 -2.87927
lowerneck -19.6683 -14.4373 -15.3016
upperneck 10.7168 -19.7595 21.9624
head 10.6474 -8.0464 6.75796
rclavicle -7.55382e-014 2.22639e-014
rhumerus 18.5107 5.5004 -12.8602
rradius 62.3167
rwrist 45.1712
rhand -60.2222 -5.05243
rfingers 7.12502
rthumb -32.3633 -32.1848
lclavicle -7.55382e-014 2.22639e-014
lhumerus -36.8077 5.81814 60.3791
lradius 65.2529
lwrist -2.18067
lhand -22.2188 19.348
lfingers 7.12502
lthumb 4.19746 49.2864
rfemur -8.59617 -11.9276 19.7507
rtibia 25.0559
rfoot -16.9051 -15.5216
rtoes 1.51285
lfemur -17.7111 -6.96311 -6.56701
ltibia 28.79
lfoot -15.6942 -3.46141
ltoes -22.3583
2248
root 2.08158 17.9778 1.2184 3.96323 22.6796 -8.4678
lowerback 6.65167 1.65579 -2.60071
upperback 1.05987 1.91965 -4.08402
thorax -2.57956 0.972974 -2.9295
lowerneck -19.6104 -14.3832 -15.2172
upperneck 10.5547 -19.7038 22.072
head 10.5769 -8.01934 6.7972
rclavicle 4.13472e-014 -3.49861e-014
rhumerus 19.1221 3.22692 -12.9973
rradius 61.2014
rwrist 44.371
rhand -60.4413 -6.16414
rfingers 7.12502
rthumb -32.5718 -33.2537
lclavicle 4.13472e-014 -3.49861e-014
lhumerus -36.4927 5.86361 60.7533
lradius 65.2425
lwrist -2.24801
lhand -22.2367 19.5605
lfingers 7.12502
lthumb 4.18019 49.4992
rfemur -8.78115 -11.8193 19.6501
rtibia 25.1273
rfoot -17.1271 -15.4498
rtoes 1.92285
lfemur -17.6815 -6.85246 -6.729
ltibia 28.7166
lfoot -15.6577 -3.31283
ltoes -22.427
2249
root 2.06045 17.9779 1.22136 4.20087 22.3768 -8.25242
lowerback 6.66654 1.66616 -2.56516
upperback 0.978539 1.92941 -4.13951
thorax -2.66866 0.977281 -3.01078
lowerneck -19.4082 -14.3764 -15.0613
upperneck 10.346 -19.7317 22.1259
head 10.4648 -8.04457 6.78925
rclavicle -6.91771e-014 -2.8625e-014
rhumerus 19.7525 0.871161 -13.3897
rradius 60.0684
rwrist 43.7046
rhand -60.2224 -7.15398
rfingers 7.12502
rthumb -32.3635 -34.2863
lclavicle -6.91771e-014 -2.8625e-014
lhumerus -36.1617 5.8238 61.1256
lradius 65.198
lwrist -2.40778
lhand -22.0923 19.7778
lfingers 7.12502
lthumb 4.31969 49.7137
rfemur -9.08248 -11.6622 19.5568
rtibia 25.2569
rfoot -17.2345 -15.3708
rtoes 2.09281
lfemur -17.6795 -6.75048 -6.86963
ltibia 28.6013
lfoot -15.5729 -3.07263
ltoes -22.4398
2250
root 2.04033 17.9746 1.22539 4.44208 22.0783 -8.06774
lowerback 6.59675 1.66292 -2.4993
upperback 0.924308 1.92938 -4.18593
thorax -2.68202 0.976418 -3.09491
lowerneck -19.5467 -14.5545 -14.9857
upperneck 10.4769 -20.0354 22.1841
head 10.5971 -8.15834 6.72257
rclavicle 3.97569e-014 -4.45278e-014
rhumerus 20.5695 -1.73111 -14.1294
rradius 58.7734
rwrist 43.0088
rhand -60.0677 -6.81785
rfingers 7.12502
rthumb -32.2163 -33.9802
lclavicle 3.97569e-014 -4.45278e-014
lhumerus -35.8166 5.79595 61.5539
lradius 65.164
lwrist -2.74585
lhand -22.2695 20.4369
lfingers 7.12502
lthumb 4.14851 50.3762
rfemur -9.38272 -11.4606 19.4747
rtibia 25.3504
rfoot -17.2943 -15.2948
rtoes 2.40976
lfemur -17.6576 -6.72615 -6.97162
ltibia 28.4816
lfoot -15.5394 -2.75534
ltoes -22.8729
2251
root 2.01792 17.9705 1.22962 4.56896 21.8407 -7.95896
lowerback 6.57751 1.62522 -2.423
upperback 0.938372 1.88663 -4.16609
thorax -2.65639 0.954386 -3.11223
lowerneck -20.1836 -14.8362 -14.8722
upperneck 11.0164 -20.4742 22.0272
head 10.953 -8.29399 6.5255
rclavicle -4.05521e-014 2.54444e-014
rhumerus 21.4454 -4.22766 -14.8439
rradius 57.5656
rwrist 42.0208
rhand -60.2005 -7.6342
rfingers 7.12502
rthumb -32.3427 -34.7708
lclavicle -4.05521e-014 2.54444e-014
lhumerus -35.4647 5.71997 62.0545
lradius 65.2064
lwrist -3.12547
lhand -22.5814 21.2493
lfingers 7.12502
lthumb 3.84733 51.1944
rfemur -9.56304 -11.1846 19.4679
rtibia 25.3963
rfoot -17.411 -15.3098
rtoes 2.71459
lfemur -17.5478 -6.77007 -6.98146
ltibia 28.371
lfoot -15.5046 -2.47837
ltoes -23.5139
